<?xml version="1.0" standalone="yes"?>

<svg version="1.1" viewBox="0.0 0.0 1876.286089238845 488.0787401574803" fill="none" stroke="none" stroke-linecap="square" stroke-miterlimit="10" xmlns="http://www.w3.org/2000/svg" xmlns:xlink="http://www.w3.org/1999/xlink"><clipPath id="p.0"><path d="m0 0l1876.2861 0l0 488.07874l-1876.2861 0l0 -488.07874z" clip-rule="nonzero"></path></clipPath><g clip-path="url(#p.0)"><path fill="#000000" fill-opacity="0.0" d="m0 0l1876.2861 0l0 488.07874l-1876.2861 0z" fill-rule="nonzero"></path><path fill="#000000" d="m205.49081 257.9987l35.496063 0l0 0c23.1344 0 45.32126 9.190094 61.67975 25.548584c16.35849 16.35849 25.548584 38.54538 25.548584 61.67975l0 33.26367c0 29.803864 -24.160797 53.96469 -53.96466 53.96469l-102.02339 0l0 0c-29.803879 0 -53.96469 -24.160828 -53.96469 -53.96469l0 -33.26367l0 0c0 -48.174866 39.053467 -87.22833 87.22835 -87.22833z" fill-rule="nonzero"></path><path stroke="#000000" stroke-width="1.0" stroke-linejoin="round" stroke-linecap="butt" d="m205.49081 257.9987l35.496063 0l0 0c23.1344 0 45.32126 9.190094 61.67975 25.548584c16.35849 16.35849 25.548584 38.54538 25.548584 61.67975l0 33.26367c0 29.803864 -24.160797 53.96469 -53.96466 53.96469l-102.02339 0l0 0c-29.803879 0 -53.96469 -24.160828 -53.96469 -53.96469l0 -33.26367l0 0c0 -48.174866 39.053467 -87.22833 87.22835 -87.22833z" fill-rule="nonzero"></path><path fill="#000000" d="m307.04987 247.29002l0 11.448807l0 0c0 6.3230286 -37.523468 11.448822 -83.81102 11.448822c-46.28755 0 -83.81102 -5.1257935 -83.81102 -11.448822l0 -11.448807z" fill-rule="nonzero"></path><path stroke="#000000" stroke-width="1.0" stroke-linejoin="round" stroke-linecap="butt" d="m307.04987 247.29002l0 11.448807l0 0c0 6.3230286 -37.523468 11.448822 -83.81102 11.448822c-46.28755 0 -83.81102 -5.1257935 -83.81102 -11.448822l0 -11.448807z" fill-rule="nonzero"></path><path fill="#000000" fill-opacity="0.0" d="m223.23885 247.29002c0 -43.527557 18.661423 -65.291336 37.32283 -87.055115c18.661407 -21.763779 37.322845 -43.527557 37.322845 -87.05512" fill-rule="nonzero"></path><path stroke="#000000" stroke-width="16.0" stroke-linejoin="round" stroke-linecap="butt" d="m223.23885 247.29002c0 -43.527557 18.661423 -65.291336 37.32283 -87.055115c18.661407 -21.763779 37.322845 -43.527557 37.322845 -87.05512" fill-rule="nonzero"></path><path fill="#000000" d="m252.71 32.870377l0 0c8.378403 -14.610081 24.788437 -21.426668 40.520218 -16.831757c15.731781 4.5949135 27.139313 19.536396 28.167816 36.894035c1.0285339 17.357643 -8.560303 33.10859 -23.677063 38.8928z" fill-rule="nonzero"></path><path stroke="#000000" stroke-width="1.0" stroke-linejoin="round" stroke-linecap="butt" d="m252.71 32.870377l0 0c8.378403 -14.610081 24.788437 -21.426668 40.520218 -16.831757c15.731781 4.5949135 27.139313 19.536396 28.167816 36.894035c1.0285339 17.357643 -8.560303 33.10859 -23.677063 38.8928z" fill-rule="nonzero"></path><path fill="#000000" d="m251.9607 48.380558l0 0l-0.16748047 -7.002392l11.496521 -12.040598l0.7939453 -0.018989563l6.3681946 6.0609646l0.018981934 0.7926712l-11.496521 12.040596z" fill-rule="nonzero"></path><path stroke="#000000" stroke-width="12.0" stroke-linejoin="round" stroke-linecap="butt" d="m251.9607 48.380558l0 0l-0.16748047 -7.002392l11.496521 -12.040598l0.7939453 -0.018989563l6.3681946 6.0609646l0.018981934 0.7926712l-11.496521 12.040596z" fill-rule="nonzero"></path><path fill="#000000" fill-opacity="0.0" d="m248.48557 52.422573l-5.448822 5.921261" fill-rule="nonzero"></path><path stroke="#000000" stroke-width="2.0" stroke-linejoin="round" stroke-linecap="butt" d="m248.48557 52.422573l-5.448822 5.921261" fill-rule="nonzero"></path><path fill="#000000" fill-opacity="0.0" d="m243.13124 58.341206c-2.346466 0 -3.519699 0.47244263 -4.692917 0.94488525c-1.173233 0.4724388 -2.346466 0.94488144 -4.692917 0.94488144" fill-rule="nonzero"></path><path stroke="#000000" stroke-width="2.0" stroke-linejoin="round" stroke-linecap="butt" d="m243.13124 58.341206c-2.346466 0 -3.519699 0.47244263 -4.692917 0.94488525c-1.173233 0.4724388 -2.346466 0.94488144 -4.692917 0.94488144" fill-rule="nonzero"></path><path fill="#000000" fill-opacity="0.0" d="m243.03674 58.527557c0 2.047245 -0.7716522 3.0708694 -1.5433044 4.09449c-0.7716522 1.0236206 -1.5433044 2.0472412 -1.5433044 4.09449" fill-rule="nonzero"></path><path stroke="#000000" stroke-width="2.0" stroke-linejoin="round" stroke-linecap="butt" d="m243.03674 58.527557c0 2.047245 -0.7716522 3.0708694 -1.5433044 4.09449c-0.7716522 1.0236206 -1.5433044 2.0472412 -1.5433044 4.09449" fill-rule="nonzero"></path><path fill="#000000" fill-opacity="0.0" d="m495.90027 58.246212l1404.7244 0l0 438.74014l-1404.7244 0z" fill-rule="nonzero"></path><path fill="#000000" d="m515.52527 336.10825q0 -16.1875 5.6875 -32.25q5.703125 -16.078125 16.578125 -28.71875q10.875 -12.65625 26.8125 -20.625q15.9375 -7.96875 36.1875 -7.96875q24.03125 0 41.109375 10.875q17.078125 10.875 25.171875 28.34375l-13.90625 8.59375q-4.3125 -8.859375 -10.515625 -14.921875q-6.1875 -6.078125 -13.28125 -9.859375q-7.078125 -3.796875 -14.671875 -5.4375q-7.578125 -1.65625 -14.921875 -1.65625q-16.1875 0 -28.59375 6.578125q-12.390625 6.578125 -20.875 17.203125q-8.46875 10.625 -12.765625 23.90625q-4.296875 13.28125 -4.296875 26.953125q0 14.921875 5.171875 28.59375q5.1875 13.65625 14.171875 24.15625q8.984375 10.5 21.25 16.703125q12.28125 6.1875 26.703125 6.1875q7.578125 0 15.546875 -1.890625q7.96875 -1.90625 15.4375 -6.078125q7.46875 -4.171875 13.78125 -10.375q6.328125 -6.203125 10.640625 -15.046875l14.671875 7.578125q-4.3125 10.125 -12.15625 17.84375q-7.828125 7.71875 -17.453125 13.03125q-9.609375 5.3125 -20.359375 8.09375q-10.75 2.78125 -21.125 2.78125q-18.46875 0 -33.90625 -8.09375q-15.4375 -8.09375 -26.578125 -21.125q-11.125 -13.03125 -17.328125 -29.59375q-6.1875 -16.578125 -6.1875 -33.78125zm238.2987 93.609375q-14.421875 0 -26.3125 -5.4375q-11.890625 -5.4375 -20.625 -14.796875q-8.71875 -9.375 -13.53125 -21.765625q-4.8125 -12.390625 -4.8125 -26.0625q0 -13.90625 4.9375 -26.296875q4.9375 -12.40625 13.65625 -21.765625q8.734375 -9.359375 20.625 -14.921875q11.890625 -5.578125 26.0625 -5.578125q14.171875 0 26.1875 5.578125q12.015625 5.5625 20.734375 14.921875q8.734375 9.359375 13.671875 21.765625q4.9375 12.390625 4.9375 26.296875q0 13.671875 -4.8125 26.0625q-4.8125 12.390625 -13.546875 21.765625q-8.71875 9.359375 -20.734375 14.796875q-12.015625 5.4375 -26.4375 5.4375zm-47.8125 -67.8125q0 11.140625 3.78125 20.625q3.796875 9.484375 10.25 16.703125q6.453125 7.203125 15.1875 11.25q8.734375 4.046875 18.59375 4.046875q9.875 0 18.59375 -4.171875q8.734375 -4.171875 15.3125 -11.375q6.578125 -7.21875 10.375 -16.828125q3.796875 -9.609375 3.796875 -20.75q0 -10.875 -3.796875 -20.609375q-3.796875 -9.75 -10.375 -16.953125q-6.578125 -7.21875 -15.3125 -11.390625q-8.71875 -4.171875 -18.59375 -4.171875q-9.859375 0 -18.46875 4.171875q-8.609375 4.171875 -15.1875 11.515625q-6.578125 7.328125 -10.375 17.078125q-3.78125 9.734375 -3.78125 20.859375zm206.88641 67.8125q-15.6875 0 -28.71875 -7.84375q-13.015625 -7.84375 -20.359375 -20.234375l0 25.546875l-15.4375 0l0 -184.6875l17.203125 0l0 80.453125q8.859375 -13.40625 21.25 -21.625q12.40625 -8.234375 28.84375 -8.234375q13.921875 0 24.921875 5.828125q11.015625 5.8125 18.71875 15.5625q7.71875 9.734375 11.890625 22.0q4.1875 12.265625 4.1875 25.171875q0 13.921875 -4.8125 26.328125q-4.8125 12.390625 -13.15625 21.625q-8.34375 9.234375 -19.859375 14.671875q-11.515625 5.4375 -24.671875 5.4375zm-4.046875 -15.1875q10.890625 0 19.859375 -4.421875q8.984375 -4.421875 15.4375 -11.890625q6.453125 -7.46875 10.125 -16.953125q3.671875 -9.484375 3.671875 -19.609375q0 -10.375 -3.421875 -19.984375q-3.421875 -9.609375 -9.625 -17.078125q-6.1875 -7.46875 -14.921875 -11.890625q-8.71875 -4.421875 -19.09375 -4.421875q-7.84375 0 -14.671875 2.65625q-6.828125 2.65625 -12.65625 7.21875q-5.8125 4.546875 -10.375 10.5q-4.546875 5.9375 -7.59375 12.515625l0 40.984375q1.015625 6.828125 5.4375 12.78125q4.4375 5.9375 10.625 10.25q6.203125 4.296875 13.40625 6.828125q7.21875 2.515625 13.796875 2.515625zm161.6159 -103.984375q-17.453125 0.515625 -30.359375 9.625q-12.90625 9.109375 -18.218689 25.046875l0 81.96875l-17.203125 0l0 -131.8125l16.203125 0l0 31.625q7.328064 -15.1875 19.718689 -23.78125q12.40625 -8.609375 26.578125 -8.609375q2.015625 0 3.28125 0.265625l0 15.671875zm56.293213 119.171875q-9.375 0 -17.34375 -3.15625q-7.96875 -3.171875 -13.921875 -8.734375q-5.9375 -5.5625 -9.234375 -13.03125q-3.28125 -7.46875 -3.28125 -16.0625q0 -8.609375 4.046875 -15.9375q4.046875 -7.34375 11.390625 -12.65625q7.34375 -5.3125 17.453125 -8.21875q10.125 -2.90625 22.265625 -2.90625q10.125 0 20.5 1.765625q10.375 1.765625 18.46875 5.0625l0 -11.890625q0 -17.453125 -9.875 -27.703125q-9.859375 -10.25 -27.3125 -10.25q-10.125 0 -20.75 4.046875q-10.625 4.046875 -21.515625 11.640625l-6.0625 -11.390625q25.546875 -17.203125 49.578125 -17.203125q24.796875 0 38.96875 13.921875q14.171875 13.90625 14.171875 38.453125l0 59.453125q0 7.078125 6.328125 7.078125l0 15.1875q-4.3125 0.765625 -6.578125 0.765625q-6.578125 0 -10.25 -3.28125q-3.671875 -3.296875 -3.921875 -9.125l-0.515625 -10.375q-9.09375 11.890625 -22.890625 18.21875q-13.78125 6.328125 -29.71875 6.328125zm4.046875 -13.15625q13.40625 0 24.65625 -5.0625q11.265625 -5.0625 17.078125 -13.40625q2.28125 -2.28125 3.421875 -4.9375q1.140625 -2.65625 1.140625 -4.9375l0 -21.5q-8.609375 -3.28125 -17.84375 -5.046875q-9.234375 -1.78125 -18.84375 -1.78125q-18.21875 0 -29.609375 7.59375q-11.375 7.578125 -11.375 19.984375q0 6.0625 2.390625 11.390625q2.40625 5.3125 6.578125 9.234375q4.1875 3.90625 10.0 6.1875q5.828125 2.28125 12.40625 2.28125zm104.40759 10.625l0 -179.625l17.71875 0l0 163.9375l103.71875 0l0 15.6875l-121.4375 0zm177.29968 2.53125q-9.375 0 -17.34375 -3.15625q-7.96875 -3.171875 -13.921875 -8.734375q-5.9375 -5.5625 -9.234375 -13.03125q-3.28125 -7.46875 -3.28125 -16.0625q0 -8.609375 4.046875 -15.9375q4.046875 -7.34375 11.390625 -12.65625q7.34375 -5.3125 17.453125 -8.21875q10.125 -2.90625 22.265625 -2.90625q10.125 0 20.5 1.765625q10.375 1.765625 18.46875 5.0625l0 -11.890625q0 -17.453125 -9.875 -27.703125q-9.859375 -10.25 -27.3125 -10.25q-10.125 0 -20.75 4.046875q-10.625 4.046875 -21.515625 11.640625l-6.0625 -11.390625q25.546875 -17.203125 49.578125 -17.203125q24.796875 0 38.96875 13.921875q14.171875 13.90625 14.171875 38.453125l0 59.453125q0 7.078125 6.328125 7.078125l0 15.1875q-4.3125 0.765625 -6.578125 0.765625q-6.578125 0 -10.25 -3.28125q-3.671875 -3.296875 -3.921875 -9.125l-0.515625 -10.375q-9.09375 11.890625 -22.890625 18.21875q-13.78125 6.328125 -29.71875 6.328125zm4.046875 -13.15625q13.40625 0 24.65625 -5.0625q11.265625 -5.0625 17.078125 -13.40625q2.28125 -2.28125 3.421875 -4.9375q1.140625 -2.65625 1.140625 -4.9375l0 -21.5q-8.609375 -3.28125 -17.84375 -5.046875q-9.234375 -1.78125 -18.84375 -1.78125q-18.21875 0 -29.609375 7.59375q-11.375 7.578125 -11.375 19.984375q0 6.0625 2.390625 11.390625q2.40625 5.3125 6.578125 9.234375q4.1875 3.90625 10.0 6.1875q5.828125 2.28125 12.40625 2.28125zm211.67322 10.625l-17.203125 0l0 -73.625q0 -23.53125 -6.953125 -34.15625q-6.953125 -10.625 -21.375 -10.625q-7.59375 0 -15.1875 2.78125q-7.578125 2.78125 -14.03125 7.84375q-6.453125 5.0625 -11.515625 12.03125q-5.0625 6.953125 -7.34375 15.046875l0 80.703125l-17.203125 0l0 -131.8125l15.6875 0l0 29.859375q8.09375 -14.421875 23.140625 -23.28125q15.0625 -8.859375 32.78125 -8.859375q10.875 0 18.46875 4.046875q7.59375 4.046875 12.140625 11.390625q4.546875 7.34375 6.5625 17.96875q2.03125 10.625 2.03125 23.515625l0 77.171875zm89.76843 1.765625q-13.671875 0 -24.9375 -5.6875q-11.25 -5.6875 -19.46875 -15.046875q-8.21875 -9.375 -12.78125 -21.515625q-4.546875 -12.140625 -4.546875 -25.046875q0 -13.65625 4.421875 -26.171875q4.421875 -12.53125 12.515625 -21.890625q8.109375 -9.359375 19.359375 -14.921875q11.265625 -5.578125 24.921875 -5.578125q16.953125 0 29.34375 8.484375q12.40625 8.46875 21.265625 21.375l0 -27.578125l15.421875 0l0 132.3125q0 13.671875 -5.1875 24.171875q-5.1875 10.5 -13.921875 17.578125q-8.71875 7.078125 -20.484375 10.625q-11.765625 3.546875 -24.921875 3.546875q-22.765625 0 -36.6875 -8.09375q-13.90625 -8.09375 -22.515625 -21.765625l10.625 -8.34375q7.84375 12.640625 20.75 18.578125q12.90625 5.953125 27.828125 5.953125q9.625 0 18.21875 -2.65625q8.609375 -2.65625 15.046875 -7.84375q6.453125 -5.171875 10.25 -13.15625q3.796875 -7.96875 3.796875 -18.59375l0 -26.046875q-7.59375 12.640625 -20.75 19.984375q-13.15625 7.328125 -27.5625 7.328125zm4.796875 -14.421875q7.59375 0 14.921875 -2.78125q7.34375 -2.78125 13.28125 -7.453125q5.953125 -4.6875 10.0 -10.5q4.046875 -5.828125 5.3125 -11.890625l0 -40.734375q-2.78125 -7.09375 -7.59375 -13.15625q-4.796875 -6.078125 -10.875 -10.375q-6.0625 -4.296875 -13.03125 -6.828125q-6.953125 -2.53125 -14.03125 -2.53125q-11.140625 0 -19.875 4.6875q-8.71875 4.671875 -14.796875 12.265625q-6.0625 7.578125 -9.234375 17.203125q-3.15625 9.609375 -3.15625 19.46875q0 10.640625 3.796875 20.25q3.796875 9.609375 10.5 16.828125q6.703125 7.203125 15.546875 11.375q8.859375 4.171875 19.234375 4.171875z" fill-rule="nonzero"></path></g></svg>

